<svg xmlns="http://www.w3.org/2000/svg" id="Capa_1" enable-background="new 0 0 512 512" height="512" viewBox="-3 -3 518 518" width="512"><g id="deeditor_bgCarrier" stroke-width="0">
  <rect id="dee_c_e" x="-3" y="-3" width="518" height="518" rx="38.4" fill="#003140" strokewidth="0"/>
</g><g><path d="m469.323 113.419c3.874 3.807 10.334 3.751 14.142-.125l23.711-24.133c2.888-1.753 4.824-4.919 4.824-8.545s-1.936-6.791-4.825-8.545l-23.712-24.133c-3.872-3.94-10.203-3.995-14.142-.125-3.94 3.871-3.996 10.202-.125 14.142l8.51 8.661h-41.379c-5.523 0-10 4.477-10 10v111.786h-38.577c-5.688-11.795-12.932-22.761-21.517-32.604h15.115c5.523 0 10-4.477 10-10v-115.964l8.661 8.51c3.874 3.807 10.334 3.751 14.142-.125 3.871-3.939 3.814-10.271-.125-14.142l-25.668-25.22c-3.819-3.752-10.197-3.752-14.017 0l-25.669 25.221c-3.939 3.871-3.996 10.202-.125 14.142s10.202 3.994 14.142.125l8.661-8.51v105.964h-26.449c-12.543-9.592-26.784-17.259-42.363-22.484-5.235-1.758-10.905 1.065-12.661 6.301s1.065 10.904 6.301 12.661c50.925 17.08 86.078 66.039 86.078 119.722 0 69.613-56.635 126.248-126.248 126.248s-126.248-56.636-126.248-126.249c0-53.687 35.162-102.654 86.096-119.728 5.237-1.755 8.059-7.423 6.303-12.66-1.755-5.237-7.426-8.058-12.66-6.303-15.588 5.225-29.836 12.895-42.385 22.491h-26.422v-105.964l8.661 8.51c3.874 3.807 10.334 3.751 14.142-.125 3.871-3.939 3.814-10.271-.125-14.142l-25.67-25.22c-3.819-3.752-10.197-3.752-14.017 0l-25.669 25.22c-3.939 3.871-3.996 10.202-.125 14.142 3.871 3.939 10.202 3.994 14.142.125l8.661-8.51v115.964c0 5.523 4.477 10 10 10h15.088c-8.585 9.843-15.829 20.808-21.517 32.604h-38.592v-111.786c0-5.523-4.477-10-10-10h-41.378l8.51-8.661c3.871-3.939 3.815-10.271-.125-14.142-3.938-3.87-10.27-3.814-14.142.125l-23.711 24.134c-2.889 1.753-4.825 4.919-4.825 8.544s1.936 6.791 4.824 8.545l23.711 24.133c3.808 3.875 10.266 3.932 14.142.125 3.939-3.871 3.996-10.202.125-14.142l-8.51-8.661h31.379v111.786c0 5.523 4.477 10 10 10h40.709c-4.316 13.857-6.621 28.518-6.621 43.596 0 15.16 2.32 29.788 6.621 43.549h-40.709c-5.523 0-10 4.477-10 10v111.785h-31.379l8.51-8.661c3.871-3.939 3.814-10.271-.125-14.142-3.938-3.87-10.271-3.815-14.142.125l-23.711 24.133c-2.888 1.753-4.824 4.919-4.824 8.545s1.936 6.791 4.825 8.545l23.712 24.133c3.818 3.885 10.254 3.944 14.142.125 3.94-3.871 3.996-10.202.125-14.142l-8.51-8.661h41.379c5.523 0 10-4.477 10-10v-111.785h38.632c5.746 11.861 13.051 22.829 21.642 32.646h-15.253c-5.523 0-10 4.477-10 10v115.964l-8.661-8.51c-3.938-3.87-10.271-3.815-14.142.125-3.871 3.939-3.814 10.271.125 14.142l25.669 25.221c3.831 3.763 10.186 3.763 14.017 0l25.669-25.221c3.939-3.871 3.996-10.202.125-14.142-3.872-3.94-10.203-3.996-14.142-.125l-8.661 8.51v-105.964h26.617c24.621 18.84 55.373 30.053 88.699 30.053s64.078-11.213 88.699-30.053h26.643v105.964l-8.661-8.51c-3.938-3.87-10.271-3.815-14.142.125-3.871 3.939-3.814 10.271.125 14.142l25.669 25.221c3.831 3.763 10.186 3.763 14.017 0l25.669-25.221c3.939-3.871 3.996-10.202.125-14.142-3.872-3.94-10.203-3.996-14.142-.125l-8.661 8.51v-115.964c0-5.523-4.477-10-10-10h-15.279c8.591-9.817 15.896-20.786 21.642-32.646h38.616v111.785c0 5.523 4.477 10 10 10h41.379l-8.51 8.661c-3.871 3.939-3.815 10.271.125 14.142 3.887 3.819 10.324 3.76 14.142-.125l23.712-24.133c2.888-1.753 4.825-4.919 4.825-8.545s-1.936-6.791-4.824-8.545l-23.711-24.133c-3.872-3.94-10.203-3.996-14.142-.125s-3.996 10.202-.125 14.142l8.51 8.661h-31.379v-111.785c0-5.523-4.477-10-10-10h-40.694c4.301-13.761 6.621-28.389 6.621-43.549 0-15.077-2.305-29.738-6.621-43.596h40.694c5.523 0 10-4.477 10-10v-111.786h31.379l-8.51 8.661c-3.873 3.94-3.817 10.271.123 14.142z" fill="#ffffff"/><path d="m261.56 128.066c4.546-3.025 5.763-9.335 2.76-13.87-3.011-4.547-9.338-5.761-13.86-2.76-4.568 3.031-5.751 9.318-2.77 13.87 3.082 4.492 9.3 5.801 13.87 2.76z" fill="#ffffff"/><path d="m153.418 255.998c0 56.568 46.021 102.589 102.589 102.589s102.589-46.021 102.589-102.589-46.021-102.589-102.589-102.589-102.589 46.021-102.589 102.589zm102.59-82.59c45.54 0 82.589 37.049 82.589 82.589s-37.049 82.589-82.589 82.589-82.589-37.049-82.589-82.589 37.049-82.589 82.589-82.589z" fill="#ffffff"/><path d="m227.607 301.138c6.734 4.359 11.837 6.276 17.827 7.05v2.67c0 5.326 4.019 9.977 9.335 10.321 5.824.377 10.665-4.235 10.665-9.978v-4.008c11.652-3.445 20.635-12.709 23.167-24.802 3.17-15.14-4.549-29.278-19.665-36.02-3.292-1.468-6.403-2.748-9.147-3.877-5.591-2.3-10.42-4.286-13.093-6.382-1.213-.951-1.731-3.36-1.26-5.857.247-1.309 1.394-5.683 5.8-7.01 8.911-2.686 14.57 1.831 15.187 2.354l1.632 1.511c4.274 3.957 11.008 3.456 14.649-1.091 3.363-4.2 2.815-10.306-1.244-13.839l-1.617-1.408c-2.776-2.56-7.828-5.696-14.409-7.301v-2.333c0-5.326-4.019-9.977-9.335-10.321-5.824-.377-10.665 4.235-10.665 9.978v3.31c-10.089 3.053-17.618 11.65-19.653 22.446-1.881 9.982 1.403 19.675 8.571 25.298 4.85 3.804 10.864 6.278 17.829 9.142 2.745 1.129 5.584 2.297 8.609 3.646 9.159 4.085 8.811 10.91 8.236 13.655-1.072 5.12-5.711 10.311-13.659 10.363-8.414.062-10.806-.323-17.156-4.478-4.783-3.128-11.254-1.632-14.148 3.39-2.686 4.661-.973 10.648 3.544 13.571z" fill="#ffffff"/></g></svg>