<svg xmlns="http://www.w3.org/2000/svg" id="Capa_1" enable-background="new 0 0 512.021 512.021" height="512" viewBox="0 0 512.021 512.021" width="512"><g><path d="m56.172 375.248v95.597c0 22.705 18.472 41.176 41.177 41.176h106.65c5.522 0 10-4.477 10-10s-4.478-10-10-10h-106.65c-11.677 0-21.177-9.5-21.177-21.176v-95.597c0-11.677 9.5-21.176 21.177-21.176h296.919c11.677 0 21.177 9.5 21.177 21.176v95.597c0 11.677-9.5 21.176-21.177 21.176h-102.281c-5.522 0-10 4.477-10 10s4.478 10 10 10h102.281c22.705 0 41.177-18.472 41.177-41.176v-95.597c0-22.705-18.472-41.176-41.177-41.176h-99.764c.264-.692.513-1.392.726-2.109l4.956-16.771c1.639-5.553 7.861-8.896 13.851-7.45l17.595 4.256c13.439 3.253 27.7-2.601 34.682-14.235l19.229-32.038c7.147-11.872 5.218-27.03-4.69-36.861l-12.623-12.53c-4.008-4.008-4.043-10.441-.005-14.449l12.626-12.516c9.91-9.833 11.84-24.991 4.699-36.85l-19.236-32.05c-6.982-11.635-21.246-17.487-34.676-14.237l-17.597 4.248c-6.003 1.452-12.216-1.889-13.855-7.442l-4.96-16.785c-3.868-13.008-16.271-22.093-30.163-22.093h-38.499c-13.91 0-26.318 9.088-30.18 22.115l-4.941 16.757c-1.646 5.555-7.864 8.896-13.867 7.448l-17.589-4.246c-13.436-3.254-27.703 2.599-34.675 14.235l-19.225 32.031c-7.16 11.869-5.237 27.03 4.684 36.875l12.62 12.501c1.986 1.974 3.08 4.546 3.078 7.243-.002 2.688-1.092 5.25-3.071 7.212l-12.634 12.531c-9.913 9.838-11.837 24.999-4.688 36.85l19.231 32.043c6.975 11.643 21.231 17.499 34.676 14.243l17.584-4.254c6.003-1.449 12.229 1.9 13.871 7.444l4.949 16.782c.212.714.46 1.412.722 2.102h-99.76c-22.705-.001-41.177 18.471-41.177 41.176zm124.34-87.856c-2.518 0-5.078.295-7.636.91l-17.6 4.258c-5.026 1.22-10.291-.874-12.817-5.089l-19.247-32.069c-2.418-4.009-1.759-8.969 1.638-12.341l12.631-12.528c5.791-5.743 8.983-13.343 8.988-21.402.005-8.068-3.185-15.682-8.992-21.453l-12.625-12.506c-3.398-3.373-4.058-8.333-1.628-12.361l19.239-32.057c2.521-4.209 7.787-6.301 12.821-5.081l17.597 4.248c16.465 3.977 33.036-5.342 37.74-21.221l4.941-16.755c1.358-4.584 5.882-7.785 11-7.785h38.499c5.107 0 9.628 3.205 10.988 7.777l4.954 16.767c4.688 15.876 21.265 25.194 37.73 21.217l17.602-4.25c5.022-1.215 10.3.876 12.828 5.089l19.243 32.062c2.417 4.013 1.756 8.975-1.641 12.345l-12.628 12.517c-11.804 11.717-11.813 31.142.008 42.851l12.617 12.523c3.399 3.373 4.06 8.336 1.637 12.361l-19.236 32.05c-2.528 4.213-7.805 6.305-12.829 5.088l-17.606-4.259c-16.472-3.962-33.039 5.36-37.724 21.226l-4.95 16.752c-1.365 4.589-5.886 7.794-10.993 7.794h-38.499c-5.118 0-9.642-3.201-10.996-7.772l-4.949-16.78c-3.967-13.395-16.409-22.126-30.105-22.126z" fill="#65d2e3"/><path d="m306.658 464.612 8.214-45.505 13.554 45.939c.034.119.072.237.111.355 1.624 4.834 6.13 8.071 11.225 8.071h.059c5.119-.025 9.622-3.313 11.204-8.182.038-.116.073-.233.107-.35l13.084-45.901 8.729 45.674c1.037 5.424 6.274 8.979 11.699 7.945 5.425-1.037 8.982-6.275 7.945-11.7l-15.18-79.425c-.008-.04-.016-.079-.023-.119-1.073-5.265-5.568-9.154-10.934-9.458-5.339-.299-10.271 3.054-11.933 8.164-.037.116-.073.232-.106.349l-14.786 51.871-15.334-51.973c-.034-.118-.071-.236-.11-.353-1.712-5.096-6.668-8.403-12.016-8.046-5.364.358-9.821 4.296-10.839 9.575-.008.039-.015.078-.021.116l-14.331 79.401c-.981 5.435 2.63 10.636 8.064 11.617 5.432.983 10.637-2.63 11.618-8.065z" fill="#65d2e3"/><path d="m150.442 391.937c6.167 0 12.112 1.815 17.194 5.249 4.576 3.091 10.793 1.888 13.885-2.688s1.889-10.792-2.688-13.884c-8.401-5.676-18.219-8.676-28.392-8.676-27.994 0-50.769 22.774-50.769 50.768 0 27.993 22.774 50.768 50.769 50.768 11.184 0 21.22-3.675 29.022-10.625 1.532-1.364 2.987-2.864 4.324-4.46 3.548-4.233 2.992-10.54-1.241-14.088-4.233-3.546-10.539-2.992-14.087 1.241-.715.853-1.486 1.649-2.296 2.37-4.144 3.691-9.433 5.562-15.723 5.562-16.966 0-30.769-13.802-30.769-30.768s13.805-30.769 30.771-30.769z" fill="#65d2e3"/><path d="m269.95 403.127c0-17.198-14.53-31.19-32.39-31.19h-21.667c-.004 0-.009.001-.013.001s-.009-.001-.013-.001c-5.522 0-10 4.477-10 10v81.536c0 5.523 4.478 10 10 10s10-4.477 10-10v-23.588l26.576 30.195c1.977 2.246 4.736 3.393 7.511 3.393 2.347 0 4.703-.821 6.603-2.493 4.146-3.649 4.549-9.968.9-14.114l-20.925-23.775c13.507-3.757 23.418-15.763 23.418-29.964zm-32.39 11.19c-2.7 0-7.308.019-11.573.04-.021-4.172-.04-8.643-.04-11.229 0-2.215-.011-6.829-.023-11.19h11.637c6.716 0 12.39 5.125 12.39 11.19-.001 6.065-5.675 11.189-12.391 11.189z" fill="#65d2e3"/><path d="m308.542 209.11c0-34.002-28.729-62.729-62.734-62.729-34.006 0-62.734 28.727-62.734 62.729 0 34.009 28.729 62.74 62.734 62.74s62.734-28.731 62.734-62.74zm-105.468 0c0-23.161 19.57-42.728 42.734-42.729 23.164 0 42.734 19.567 42.734 42.729 0 23.167-19.57 42.74-42.734 42.74s-42.734-19.572-42.734-42.74z" fill="#65d2e3"/><path d="m256.32 496.471c-3.047-4.527-9.323-5.777-13.87-2.76-4.546 3.016-5.764 9.333-2.76 13.86 3.016 4.545 9.334 5.766 13.86 2.76 4.537-3.012 5.79-9.334 2.77-13.86z" fill="#65d2e3"/><path d="m458.692 180.324c-9.623-56.969-40.855-106.78-87.943-140.257s-104.39-46.616-161.364-36.992c-56.968 9.624-106.779 40.857-140.257 87.945s-46.615 104.394-36.991 161.362c2.08 12.311 5.238 24.509 9.389 36.257 1.839 5.208 7.552 7.936 12.76 6.099 5.207-1.84 7.938-7.552 6.098-12.76-3.769-10.668-6.637-21.747-8.525-32.927-18.03-106.728 54.131-208.225 160.858-226.255 51.701-8.732 103.709 3.189 146.442 33.571s71.078 75.588 79.812 127.289c4.233 25.056 3.535 50.698-1.928 75.318l-7.385-13.709c-2.619-4.863-8.685-6.679-13.547-4.061-4.861 2.619-6.68 8.684-4.061 13.546l19.018 35.301c2.653 4.918 9.069 6.706 13.883 3.871l33.086-19.51c4.758-2.805 6.34-8.936 3.535-13.693-2.806-4.756-8.938-6.341-13.693-3.534l-11.461 6.758c6.149-27.326 6.973-55.802 2.274-83.619z" fill="#65d2e3"/></g></svg>